<svg xmlns="http://www.w3.org/2000/svg" width="300" height="300" viewBox="0 0 300 300">
  <defs>
    <linearGradient id="g8" x1="0%" y1="0%" x2="100%" y2="100%">
      <stop offset="0%" stop-color="#EC4899"/>
      <stop offset="100%" stop-color="#BE185D"/>
    </linearGradient>
  </defs>
  <rect width="300" height="300" fill="url(#g8)"/>
  <circle cx="150" cy="150" r="80" fill="rgba(255,255,255,0.1)"/>
  <circle cx="150" cy="150" r="55" fill="rgba(255,255,255,0.08)"/>
  <path d="M150 210c-10-15-35-30-35-50a25 25 0 0 1 12-21c5 10 12 25 23 30 11-5 18-20 23-30a25 25 0 0 1 12 21c0 20-25 35-35 50z" fill="rgba(255,255,255,0.5)" stroke="rgba(255,255,255,0.7)" stroke-width="2"/>
  <path d="M150 195c-5-8-18-16-18-28 0-8 5-12 8-14 1 4 5 11 10 14 5-3 9-10 10-14 3 2 8 6 8 14 0 12-13 20-18 28z" fill="rgba(255,255,255,0.3)"/>
</svg>
